<svg xmlns="http://www.w3.org/2000/svg" width="840" height="500" viewBox="0 0 840 500">
<rect width="100%" height="100%" fill="white"/>
<text x="420.0" y="25" text-anchor="middle" font-family="sans-serif" font-size="17">Mean shift: Evaluated-set Jaccard</text>
<line x1="82" y1="434" x2="812" y2="434" stroke="black"/>
<line x1="82" y1="48" x2="82" y2="434" stroke="black"/>
<text x="74" y="438.00" text-anchor="end" font-family="sans-serif" font-size="11">0.847</text>
<text x="74" y="360.80" text-anchor="end" font-family="sans-serif" font-size="11">0.849</text>
<text x="74" y="283.60" text-anchor="end" font-family="sans-serif" font-size="11">0.851</text>
<text x="74" y="206.40" text-anchor="end" font-family="sans-serif" font-size="11">0.853</text>
<text x="74" y="129.20" text-anchor="end" font-family="sans-serif" font-size="11">0.856</text>
<text x="74" y="52.00" text-anchor="end" font-family="sans-serif" font-size="11">0.858</text>
<text x="82.00" y="454" text-anchor="middle" font-family="sans-serif" font-size="11">0</text>
<text x="264.50" y="454" text-anchor="middle" font-family="sans-serif" font-size="11">0.25</text>
<text x="447.00" y="454" text-anchor="middle" font-family="sans-serif" font-size="11">0.5</text>
<text x="629.50" y="454" text-anchor="middle" font-family="sans-serif" font-size="11">0.75</text>
<text x="812.00" y="454" text-anchor="middle" font-family="sans-serif" font-size="11">1</text>
<text x="420.0" y="488" text-anchor="middle" font-family="sans-serif" font-size="13">alpha</text>
<text x="18" y="241.0" text-anchor="middle" transform="rotate(-90 18 241.0)" font-family="sans-serif" font-size="13">Evaluated-set Jaccard</text>
<polyline points="82.00,264.99 264.50,307.96 447.00,267.76 629.50,226.21 812.00,174.98" fill="none" stroke="#9ecae1" stroke-width="2"/>
<circle cx="82.00" cy="264.99" r="3" fill="#9ecae1"/>
<circle cx="264.50" cy="307.96" r="3" fill="#9ecae1"/>
<circle cx="447.00" cy="267.76" r="3" fill="#9ecae1"/>
<circle cx="629.50" cy="226.21" r="3" fill="#9ecae1"/>
<circle cx="812.00" cy="174.98" r="3" fill="#9ecae1"/>
<text x="92" y="64" font-family="sans-serif" font-size="11" fill="#9ecae1">replicate 0</text>
<polyline points="82.00,314.42 264.50,251.47 447.00,303.83 629.50,256.97 812.00,249.29" fill="none" stroke="#fdae6b" stroke-width="2"/>
<circle cx="82.00" cy="314.42" r="3" fill="#fdae6b"/>
<circle cx="264.50" cy="251.47" r="3" fill="#fdae6b"/>
<circle cx="447.00" cy="303.83" r="3" fill="#fdae6b"/>
<circle cx="629.50" cy="256.97" r="3" fill="#fdae6b"/>
<circle cx="812.00" cy="249.29" r="3" fill="#fdae6b"/>
<text x="92" y="81" font-family="sans-serif" font-size="11" fill="#fdae6b">replicate 1</text>
<polyline points="82.00,330.13 264.50,294.29 447.00,265.05 629.50,265.37 812.00,163.97" fill="none" stroke="#a1d99b" stroke-width="2"/>
<circle cx="82.00" cy="330.13" r="3" fill="#a1d99b"/>
<circle cx="264.50" cy="294.29" r="3" fill="#a1d99b"/>
<circle cx="447.00" cy="265.05" r="3" fill="#a1d99b"/>
<circle cx="629.50" cy="265.37" r="3" fill="#a1d99b"/>
<circle cx="812.00" cy="163.97" r="3" fill="#a1d99b"/>
<text x="92" y="98" font-family="sans-serif" font-size="11" fill="#a1d99b">replicate 2</text>
<polyline points="82.00,249.19 264.50,212.89 447.00,243.04 629.50,201.89 812.00,151.87" fill="none" stroke="#bcbddc" stroke-width="2"/>
<circle cx="82.00" cy="249.19" r="3" fill="#bcbddc"/>
<circle cx="264.50" cy="212.89" r="3" fill="#bcbddc"/>
<circle cx="447.00" cy="243.04" r="3" fill="#bcbddc"/>
<circle cx="629.50" cy="201.89" r="3" fill="#bcbddc"/>
<circle cx="812.00" cy="151.87" r="3" fill="#bcbddc"/>
<text x="92" y="115" font-family="sans-serif" font-size="11" fill="#bcbddc">replicate 3</text>
</svg>
