<svg xmlns="http://www.w3.org/2000/svg" width="840" height="500" viewBox="0 0 840 500">
<rect width="100%" height="100%" fill="white"/>
<text x="420.0" y="25" text-anchor="middle" font-family="sans-serif" font-size="17">Radial shift: Mean discovery delta</text>
<line x1="82" y1="434" x2="812" y2="434" stroke="black"/>
<line x1="82" y1="48" x2="82" y2="434" stroke="black"/>
<text x="74" y="438.00" text-anchor="end" font-family="sans-serif" font-size="11">-0.005</text>
<text x="74" y="360.80" text-anchor="end" font-family="sans-serif" font-size="11">-0.003</text>
<text x="74" y="283.60" text-anchor="end" font-family="sans-serif" font-size="11">-0.000</text>
<text x="74" y="206.40" text-anchor="end" font-family="sans-serif" font-size="11">0.002</text>
<text x="74" y="129.20" text-anchor="end" font-family="sans-serif" font-size="11">0.005</text>
<text x="74" y="52.00" text-anchor="end" font-family="sans-serif" font-size="11">0.007</text>
<text x="82.00" y="454" text-anchor="middle" font-family="sans-serif" font-size="11">1</text>
<text x="264.50" y="454" text-anchor="middle" font-family="sans-serif" font-size="11">1.25</text>
<text x="447.00" y="454" text-anchor="middle" font-family="sans-serif" font-size="11">1.5</text>
<text x="812.00" y="454" text-anchor="middle" font-family="sans-serif" font-size="11">2</text>
<text x="420.0" y="488" text-anchor="middle" font-family="sans-serif" font-size="13">sigma</text>
<text x="18" y="241.0" text-anchor="middle" transform="rotate(-90 18 241.0)" font-family="sans-serif" font-size="13">Mean discovery delta</text>
<polyline points="82.00,142.92 264.50,269.48 447.00,294.79 812.00,212.52" fill="none" stroke="#9ecae1" stroke-width="2"/>
<circle cx="82.00" cy="142.92" r="3" fill="#9ecae1"/>
<circle cx="264.50" cy="269.48" r="3" fill="#9ecae1"/>
<circle cx="447.00" cy="294.79" r="3" fill="#9ecae1"/>
<circle cx="812.00" cy="212.52" r="3" fill="#9ecae1"/>
<text x="92" y="64" font-family="sans-serif" font-size="11" fill="#9ecae1">replicate 0</text>
<polyline points="82.00,187.21 264.50,250.49 447.00,161.90 812.00,339.08" fill="none" stroke="#fdae6b" stroke-width="2"/>
<circle cx="82.00" cy="187.21" r="3" fill="#fdae6b"/>
<circle cx="264.50" cy="250.49" r="3" fill="#fdae6b"/>
<circle cx="447.00" cy="161.90" r="3" fill="#fdae6b"/>
<circle cx="812.00" cy="339.08" r="3" fill="#fdae6b"/>
<text x="92" y="81" font-family="sans-serif" font-size="11" fill="#fdae6b">replicate 1</text>
<polyline points="82.00,206.20 264.50,269.48 447.00,313.77 812.00,225.18" fill="none" stroke="#a1d99b" stroke-width="2"/>
<circle cx="82.00" cy="206.20" r="3" fill="#a1d99b"/>
<circle cx="264.50" cy="269.48" r="3" fill="#a1d99b"/>
<circle cx="447.00" cy="313.77" r="3" fill="#a1d99b"/>
<circle cx="812.00" cy="225.18" r="3" fill="#a1d99b"/>
<text x="92" y="98" font-family="sans-serif" font-size="11" fill="#a1d99b">replicate 2</text>
<polyline points="82.00,313.77 264.50,206.20 447.00,250.49 812.00,263.15" fill="none" stroke="#bcbddc" stroke-width="2"/>
<circle cx="82.00" cy="313.77" r="3" fill="#bcbddc"/>
<circle cx="264.50" cy="206.20" r="3" fill="#bcbddc"/>
<circle cx="447.00" cy="250.49" r="3" fill="#bcbddc"/>
<circle cx="812.00" cy="263.15" r="3" fill="#bcbddc"/>
<text x="92" y="115" font-family="sans-serif" font-size="11" fill="#bcbddc">replicate 3</text>
</svg>
